<svg xmlns="http://www.w3.org/2000/svg" style="display: none;"><symbol id="analytics" viewBox="0 0 505 505"><title>analytics</title><circle style="fill:#324A5E;" cx="252.5" cy="252.5" r="252.5"/><polygon style="fill:#CED5E0;" points="143,235 130.5,225.4 212.4,119.2 292.2,196.4 367.9,135.9 377.7,148.2 291.2,217.4 214.1,142.8 "/><path style="fill:#2B3B4E;" d="M43.4,394.1C88.8,461,165.5,505,252.5,505s163.7-44,209.1-110.9H43.4z"/><g> <path style="fill:#54C0EB;" d="M394.8,385.4h-49.3c-1.2,0-2.1-0.9-2.1-2.1V204.6c0-1.2,0.9-2.1,2.1-2.1h49.3c1.2,0,2.1,0.9,2.1,2.1 v178.7C396.9,384.4,396,385.4,394.8,385.4z"/> <path style="fill:#54C0EB;" d="M316.4,385.4h-49.3c-1.2,0-2.1-0.9-2.1-2.1V257.1c0-1.2,0.9-2.1,2.1-2.1h49.3c1.2,0,2.1,0.9,2.1,2.1 v126.2C318.4,384.4,317.5,385.4,316.4,385.4z"/> <path style="fill:#54C0EB;" d="M237.9,385.4h-49.3c-1.2,0-2.1-0.9-2.1-2.1V193.2c0-1.2,0.9-2.1,2.1-2.1h49.3c1.2,0,2.1,0.9,2.1,2.1 v190.1C240,384.4,239.1,385.4,237.9,385.4z"/> <path style="fill:#54C0EB;" d="M159.5,385.4h-49.3c-1.2,0-2.1-0.9-2.1-2.1v-93.7c0-1.2,0.9-2.1,2.1-2.1h49.3c1.2,0,2.1,0.9,2.1,2.1 v93.7C161.6,384.4,160.6,385.4,159.5,385.4z"/> </g><rect x="73.3" y="377" style="fill:#CED5E0;" width="358.4" height="17.1"/><circle style="fill:#E6E9EE;" cx="372.8" cy="142.1" r="29.4"/><circle style="fill:#FF7058;" cx="372.8" cy="142.1" r="17.1"/><circle style="fill:#E6E9EE;" cx="291.7" cy="204" r="29.4"/><circle style="fill:#FF7058;" cx="291.7" cy="204" r="17.1"/><circle style="fill:#E6E9EE;" cx="213.3" cy="131" r="29.4"/><circle style="fill:#FF7058;" cx="213.3" cy="131" r="17.1"/><circle style="fill:#E6E9EE;" cx="134.8" cy="230.2" r="29.4"/><circle style="fill:#FF7058;" cx="134.8" cy="230.2" r="17.1"/></symbol><symbol id="list" viewBox="0 0 55 55"><title>list</title><g> <path style="fill:#3ABCA7;" d="M44.136,52H8.864C4.245,52,0.5,48.255,0.5,43.636V8.364C0.5,3.745,4.245,0,8.864,0h35.272 C48.755,0,52.5,3.745,52.5,8.364v35.272C52.5,48.255,48.755,52,44.136,52z"/> <path style="fill:#FFFFFF;" d="M44.5,14h-18c-0.553,0-1-0.447-1-1s0.447-1,1-1h18c0.553,0,1,0.447,1,1S45.053,14,44.5,14z"/> <path style="fill:#FFFFFF;" d="M44.5,28h-18c-0.553,0-1-0.447-1-1s0.447-1,1-1h18c0.553,0,1,0.447,1,1S45.053,28,44.5,28z"/> <path style="fill:#FFFFFF;" d="M44.5,42h-18c-0.553,0-1-0.447-1-1s0.447-1,1-1h18c0.553,0,1,0.447,1,1S45.053,42,44.5,42z"/> <path style="fill:#FFFFFF;" d="M12.57,17c-0.209,0-0.42-0.065-0.599-0.2L7.4,13.371c-0.442-0.331-0.532-0.958-0.2-1.399 c0.331-0.443,0.958-0.531,1.399-0.2l3.822,2.866L18.67,7.35c0.359-0.42,0.991-0.468,1.409-0.108 c0.42,0.359,0.469,0.99,0.108,1.409l-6.857,8C13.134,16.881,12.854,17,12.57,17z"/> <path style="fill:#FFFFFF;" d="M12.57,31c-0.209,0-0.42-0.065-0.599-0.2L7.4,27.371c-0.442-0.331-0.532-0.958-0.2-1.399 c0.331-0.443,0.958-0.531,1.399-0.2l3.822,2.866l6.248-7.288c0.359-0.421,0.991-0.468,1.409-0.108 c0.42,0.359,0.469,0.99,0.108,1.409l-6.857,8C13.134,30.881,12.854,31,12.57,31z"/> <path style="fill:#FFFFFF;" d="M12.57,45.999c-0.209,0-0.42-0.065-0.599-0.2L7.4,42.37c-0.442-0.331-0.532-0.958-0.2-1.399 c0.331-0.443,0.958-0.531,1.399-0.2l3.822,2.866l6.248-7.287c0.359-0.42,0.991-0.468,1.409-0.108 c0.42,0.359,0.469,0.99,0.108,1.409l-6.857,7.999C13.134,45.88,12.854,45.999,12.57,45.999z"/> </g><g> <circle style="fill:#556080;" cx="43.5" cy="44" r="11"/> <path style="fill:#FFFFFF;" d="M49.5,43h-5v-5c0-0.552-0.447-1-1-1s-1,0.448-1,1v6c0,0.552,0.447,1,1,1h6c0.553,0,1-0.448,1-1 S50.053,43,49.5,43z"/> </g></symbol><symbol id="settings" viewBox="0 0 502.596 502.596"><title>settings</title><path style="fill:#84DBFF;" d="M336.98,141.061c-3.135-12.539-8.359-25.078-14.629-36.571l12.539-29.257l-43.886-42.841 l-29.257,12.539c-11.494-6.269-22.988-11.494-36.571-14.629L214.727,0h-61.649l-11.494,30.302 c-12.539,3.135-25.078,8.359-36.571,14.629L75.755,32.392L32.914,75.233l12.539,29.257c-6.269,11.494-11.494,22.988-14.629,36.571 L0.522,152.555v61.649l30.302,11.494c3.135,12.539,8.359,25.078,14.629,36.571l-12.539,29.257L76.8,334.367l29.257-12.539 c11.494,6.269,22.988,11.494,36.571,14.629l11.494,30.302h60.604l11.494-30.302c12.539-3.135,25.078-8.359,36.571-14.629 l29.257,12.539l43.886-42.841l-12.539-29.257c6.269-11.494,11.494-22.988,14.629-36.571l30.302-11.494v-61.649L336.98,141.061z M183.38,258.09c-41.796,0-75.233-33.437-75.233-75.233s33.437-75.233,75.233-75.233s75.233,33.437,75.233,75.233 S225.176,258.09,183.38,258.09z"/><g> <path style="fill:#54C0EB;" d="M236.669,236.147c-29.257,29.257-76.278,29.257-105.535,0l-27.167,27.167 c43.886,43.886,115.984,43.886,159.869,0s43.886-114.939,0-159.869l-27.167,27.167C265.927,159.869,265.927,206.89,236.669,236.147 z"/> <path style="fill:#54C0EB;" d="M103.967,103.445c-43.886,43.886-43.886,114.939,0,159.869l27.167-27.167 c-29.257-29.257-29.257-76.278,0-105.535s76.278-29.257,105.535,0l27.167-27.167C219.951,59.559,147.853,59.559,103.967,103.445z"/> </g><path style="fill:#4CDBC4;" d="M354.743,428.408c1.045-6.269,1.045-11.494,0-17.763l10.449-10.449l-10.449-26.122h-14.629 c-3.135-4.18-8.359-8.359-12.539-12.539v-14.629l-26.122-10.449l-10.449,10.449c-6.269-1.045-11.494-1.045-17.763,0l-10.449-10.449 l-26.122,10.449v14.629c-4.18,3.135-8.359,8.359-12.539,12.539h-14.629l-10.449,26.122l10.449,10.449 c-1.045,6.269-1.045,11.494,0,17.763l-10.449,10.449l10.449,26.122h14.629c3.135,4.18,8.359,8.359,12.539,12.539v14.629 l26.122,10.449l10.449-10.449c6.269,1.045,11.494,1.045,17.763,0l10.449,10.449l26.122-10.449v-14.629 c4.18-3.135,8.359-8.359,12.539-12.539h14.629l10.449-26.122L354.743,428.408z M271.151,450.351 c-17.763-7.314-26.122-27.167-18.808-43.886c7.314-17.763,27.167-26.122,43.886-18.808c17.763,7.314,26.122,27.167,18.808,43.886 C307.722,449.306,287.869,457.665,271.151,450.351z"/><path style="fill:#FF7058;" d="M491.624,291.527c1.045-6.269,1.045-11.494,0-17.763l10.449-10.449l-10.449-26.122h-14.629 c-3.135-4.18-8.359-8.359-12.539-12.539v-14.629l-26.122-10.449l-10.449,10.449c-6.269-1.045-11.494-1.045-17.763,0l-10.449-10.449 l-26.122,10.449v14.629c-4.18,3.135-8.359,8.359-12.539,12.539h-14.629l-10.449,26.122l10.449,10.449 c-1.045,6.269-1.045,11.494,0,17.763l-10.449,10.449l10.449,26.122h14.629c3.135,4.18,8.359,8.359,12.539,12.539v14.629 l26.122,10.449l10.449-10.449c6.269,1.045,11.494,1.045,17.763,0l10.449,10.449l26.122-10.449v-14.629 c4.18-3.135,8.359-8.359,12.539-12.539h14.629l10.449-26.122L491.624,291.527z M406.988,314.514 c-17.763-7.314-26.122-27.167-18.808-43.886c7.314-17.763,27.167-26.122,43.886-18.808c17.763,7.314,26.122,27.167,18.808,43.886 C444.604,313.469,424.751,321.829,406.988,314.514z"/></symbol><symbol id="list-1" viewBox="0 0 54.981 54.981"><title>list-1</title><g> <path style="fill:#3ABCA7;" d="M43.992,52H8.72c-4.619,0-8.364-3.745-8.364-8.364V8.364C0.356,3.745,4.101,0,8.72,0h35.272 c4.619,0,8.364,3.745,8.364,8.364v35.272C52.356,48.255,48.611,52,43.992,52z"/> <path style="fill:#FFFFFF;" d="M44.356,14h-18c-0.552,0-1-0.447-1-1s0.448-1,1-1h18c0.552,0,1,0.447,1,1S44.908,14,44.356,14z"/> <path style="fill:#FFFFFF;" d="M44.356,28h-18c-0.552,0-1-0.447-1-1s0.448-1,1-1h18c0.552,0,1,0.447,1,1S44.908,28,44.356,28z"/> <path style="fill:#FFFFFF;" d="M44.356,42h-18c-0.552,0-1-0.447-1-1s0.448-1,1-1h18c0.552,0,1,0.447,1,1S44.908,42,44.356,42z"/> <path style="fill:#FFFFFF;" d="M12.427,17c-0.209,0-0.42-0.065-0.6-0.2l-4.571-3.429c-0.442-0.331-0.531-0.958-0.2-1.399 c0.331-0.441,0.958-0.531,1.4-0.2l3.822,2.866l6.248-7.288c0.359-0.42,0.991-0.468,1.41-0.108c0.419,0.359,0.468,0.99,0.108,1.409 l-6.857,8C12.989,16.881,12.709,17,12.427,17z"/> <path style="fill:#FFFFFF;" d="M12.427,31c-0.209,0-0.42-0.065-0.6-0.2l-4.571-3.429c-0.442-0.331-0.531-0.958-0.2-1.399 c0.331-0.441,0.958-0.531,1.4-0.2l3.822,2.866l6.248-7.288c0.359-0.42,0.991-0.468,1.41-0.108c0.419,0.359,0.468,0.99,0.108,1.409 l-6.857,8C12.989,30.881,12.709,31,12.427,31z"/> <path style="fill:#FFFFFF;" d="M12.427,45.999c-0.209,0-0.42-0.065-0.6-0.2L7.256,42.37c-0.442-0.331-0.531-0.958-0.2-1.399 c0.331-0.441,0.958-0.531,1.4-0.2l3.822,2.866l6.248-7.287c0.359-0.421,0.991-0.469,1.41-0.108 c0.419,0.359,0.468,0.99,0.108,1.409l-6.857,7.999C12.989,45.88,12.709,45.999,12.427,45.999z"/> </g><g> <polygon style="fill:#EDDCC7;" points="33.192,45.489 33.184,45.496 31.196,52.786 35.843,48.139 "/> <path style="fill:#D75A4A;" d="M52.442,31.54l-1.247-1.247c-0.775-0.775-2.032-0.775-2.807,0l-3.582,3.582l2.651,2.651 L52.442,31.54z"/> <rect x="38.45" y="32.795" transform="matrix(0.7071 0.7071 -0.7071 0.7071 40.8071 -16.5028)" style="fill:#F29C21;" width="3.749" height="16.424"/> <polygon style="fill:#D6C4B1;" points="38.841,51.153 38.849,51.145 35.843,48.139 31.196,52.786 31.063,53.274 "/> <path style="fill:#A34740;" d="M50.462,39.532l3.582-3.582c0.775-0.775,0.775-2.032,0-2.807l-1.602-1.602l-4.985,4.985 L50.462,39.532z"/> <rect x="41.027" y="35.623" transform="matrix(-0.7071 -0.7071 0.7071 -0.7071 42.6691 105.3453)" style="fill:#E18C25;" width="4.251" height="16.424"/> <path style="fill:#5E5E5E;" d="M30.356,54.981c-0.256,0-0.512-0.098-0.707-0.293c-0.391-0.391-0.391-1.023,0-1.414l2.207-2.207 c0.391-0.391,1.023-0.391,1.414,0s0.391,1.023,0,1.414l-2.207,2.207C30.868,54.884,30.612,54.981,30.356,54.981z"/> </g></symbol><symbol id="calendar" viewBox="0 0 512 512"><title>calendar</title><path d="m512 102.296875v346.121094c0 35.117187-28.472656 63.582031-63.59375 63.582031h-384.824219c-35.117187 0-63.582031-28.464844-63.582031-63.582031v-346.121094c0-35.121094 28.464844-63.59375 63.582031-63.59375h384.824219c35.121094 0 63.59375 28.472656 63.59375 63.59375zm0 0" fill="#e4e4ef"/><path d="m0 137.164062h512v45.976563h-512zm0 0" fill="#cacadb"/><path d="m512 102.296875v58.660156h-512v-58.660156c0-35.121094 28.464844-63.59375 63.582031-63.59375h384.824219c35.121094 0 63.59375 28.472656 63.59375 63.59375zm0 0" fill="#589ce0"/><path d="m159.703125 32.128906v55.945313c0 13.699219-8.578125 25.402343-20.660156 30.019531-3.5625 1.371094-7.425781 2.109375-11.472657 2.109375-17.742187 0-32.128906-14.386719-32.128906-32.128906v-55.945313c0-17.742187 14.386719-32.128906 32.128906-32.128906 4.046876 0 7.910157.742188 11.472657 2.109375 4.265625 1.632813 8.078125 4.140625 11.246093 7.304687 5.820313 5.808594 9.414063 13.84375 9.414063 22.714844zm0 0" fill="#e8a328"/><path d="m416.546875 32.128906v55.945313c0 13.699219-8.566406 25.402343-20.644531 30.019531-3.5625 1.371094-7.429688 2.109375-11.472656 2.109375-17.753907 0-32.132813-14.386719-32.132813-32.128906v-55.945313c0-17.742187 14.378906-32.128906 32.132813-32.128906 4.042968 0 7.910156.742188 11.472656 2.109375 4.25 1.632813 8.074218 4.140625 11.242187 7.304687 5.808594 5.808594 9.402344 13.84375 9.402344 22.714844zm0 0" fill="#e8a328"/><path d="m159.703125 32.128906v55.945313c0 13.699219-8.578125 25.402343-20.660156 30.019531-12.085938-4.617188-20.667969-16.320312-20.667969-30.019531v-55.945313c0-13.695312 8.582031-25.398437 20.667969-30.019531 4.265625 1.632813 8.078125 4.140625 11.246093 7.304687 5.820313 5.808594 9.414063 13.84375 9.414063 22.714844zm0 0" fill="#ffbf3e"/><path d="m416.546875 32.128906v55.945313c0 13.699219-8.566406 25.402343-20.644531 30.019531-12.089844-4.617188-20.667969-16.320312-20.667969-30.019531v-55.945313c0-13.695312 8.578125-25.398437 20.667969-30.019531 4.25 1.632813 8.074218 4.140625 11.242187 7.304687 5.808594 5.808594 9.402344 13.84375 9.402344 22.714844zm0 0" fill="#ffbf3e"/><path d="m244.644531 227.074219c0 14.59375-11.832031 26.425781-26.425781 26.425781-14.597656 0-26.425781-11.832031-26.425781-26.425781 0-14.597657 11.828125-26.429688 26.425781-26.429688 14.59375 0 26.425781 11.832031 26.425781 26.429688zm0 0" fill="#589ce0"/><path d="m320.207031 227.074219c0 14.59375-11.828125 26.425781-26.425781 26.425781-14.59375 0-26.425781-11.832031-26.425781-26.425781 0-14.597657 11.832031-26.429688 26.425781-26.429688 14.597656 0 26.425781 11.832031 26.425781 26.429688zm0 0" fill="#589ce0"/><path d="m395.773438 227.074219c0 14.59375-11.832032 26.425781-26.429688 26.425781-14.59375 0-26.425781-11.832031-26.425781-26.425781 0-14.597657 11.832031-26.429688 26.425781-26.429688 14.597656 0 26.429688 11.832031 26.429688 26.429688zm0 0" fill="#589ce0"/><path d="m471.332031 227.074219c0 14.59375-11.832031 26.425781-26.425781 26.425781-14.597656 0-26.429688-11.832031-26.429688-26.425781 0-14.597657 11.832032-26.429688 26.429688-26.429688 14.59375 0 26.425781 11.832031 26.425781 26.429688zm0 0" fill="#f94141"/><g fill="#589ce0"><path d="m93.523438 299.75c0 14.59375-11.832032 26.425781-26.429688 26.425781-14.59375 0-26.425781-11.832031-26.425781-26.425781 0-14.597656 11.832031-26.429688 26.425781-26.429688 14.597656 0 26.429688 11.832032 26.429688 26.429688zm0 0"/><path d="m169.082031 299.75c0 14.59375-11.832031 26.425781-26.425781 26.425781-14.597656 0-26.429688-11.832031-26.429688-26.425781 0-14.597656 11.832032-26.429688 26.429688-26.429688 14.59375 0 26.425781 11.832032 26.425781 26.429688zm0 0"/><path d="m244.644531 299.75c0 14.59375-11.832031 26.425781-26.425781 26.425781-14.597656 0-26.425781-11.832031-26.425781-26.425781 0-14.597656 11.828125-26.429688 26.425781-26.429688 14.59375 0 26.425781 11.832032 26.425781 26.429688zm0 0"/><path d="m320.207031 299.75c0 14.59375-11.828125 26.425781-26.425781 26.425781-14.59375 0-26.425781-11.832031-26.425781-26.425781 0-14.597656 11.832031-26.429688 26.425781-26.429688 14.597656 0 26.425781 11.832032 26.425781 26.429688zm0 0"/><path d="m395.773438 299.75c0 14.59375-11.832032 26.425781-26.429688 26.425781-14.59375 0-26.425781-11.832031-26.425781-26.425781 0-14.597656 11.832031-26.429688 26.425781-26.429688 14.597656 0 26.429688 11.832032 26.429688 26.429688zm0 0"/></g><path d="m471.332031 299.75c0 14.59375-11.832031 26.425781-26.425781 26.425781-14.597656 0-26.429688-11.832031-26.429688-26.425781 0-14.597656 11.832032-26.429688 26.429688-26.429688 14.59375 0 26.425781 11.832032 26.425781 26.429688zm0 0" fill="#f94141"/><path d="m93.523438 372.425781c0 14.59375-11.832032 26.425781-26.429688 26.425781-14.59375 0-26.425781-11.832031-26.425781-26.425781 0-14.597656 11.832031-26.429687 26.425781-26.429687 14.597656 0 26.429688 11.832031 26.429688 26.429687zm0 0" fill="#589ce0"/><path d="m169.082031 372.425781c0 14.59375-11.832031 26.425781-26.425781 26.425781-14.597656 0-26.429688-11.832031-26.429688-26.425781 0-14.597656 11.832032-26.429687 26.429688-26.429687 14.59375 0 26.425781 11.832031 26.425781 26.429687zm0 0" fill="#589ce0"/><path d="m244.644531 372.425781c0 14.59375-11.832031 26.425781-26.425781 26.425781-14.597656 0-26.425781-11.832031-26.425781-26.425781 0-14.597656 11.828125-26.429687 26.425781-26.429687 14.59375 0 26.425781 11.832031 26.425781 26.429687zm0 0" fill="#589ce0"/><path d="m320.207031 372.425781c0 14.59375-11.828125 26.425781-26.425781 26.425781-14.59375 0-26.425781-11.832031-26.425781-26.425781 0-14.597656 11.832031-26.429687 26.425781-26.429687 14.597656 0 26.425781 11.832031 26.425781 26.429687zm0 0" fill="#589ce0"/><path d="m395.773438 372.425781c0 14.59375-11.832032 26.425781-26.429688 26.425781-14.59375 0-26.425781-11.832031-26.425781-26.425781 0-14.597656 11.832031-26.429687 26.425781-26.429687 14.597656 0 26.429688 11.832031 26.429688 26.429687zm0 0" fill="#589ce0"/><path d="m471.332031 372.425781c0 14.59375-11.832031 26.425781-26.425781 26.425781-14.597656 0-26.429688-11.832031-26.429688-26.425781 0-14.597656 11.832032-26.429687 26.429688-26.429687 14.59375 0 26.425781 11.832031 26.425781 26.429687zm0 0" fill="#f94141"/><path d="m93.523438 445.101562c0 14.59375-11.832032 26.425782-26.429688 26.425782-14.59375 0-26.425781-11.832032-26.425781-26.425782 0-14.597656 11.832031-26.429687 26.425781-26.429687 14.597656 0 26.429688 11.832031 26.429688 26.429687zm0 0" fill="#589ce0"/><path d="m169.082031 445.101562c0 14.59375-11.832031 26.425782-26.425781 26.425782-14.597656 0-26.429688-11.832032-26.429688-26.425782 0-14.597656 11.832032-26.429687 26.429688-26.429687 14.59375 0 26.425781 11.832031 26.425781 26.429687zm0 0" fill="#589ce0"/><path d="m244.644531 445.101562c0 14.59375-11.832031 26.425782-26.425781 26.425782-14.597656 0-26.425781-11.832032-26.425781-26.425782 0-14.597656 11.828125-26.429687 26.425781-26.429687 14.59375 0 26.425781 11.832031 26.425781 26.429687zm0 0" fill="#589ce0"/><path d="m320.207031 445.101562c0 14.59375-11.828125 26.425782-26.425781 26.425782-14.59375 0-26.425781-11.832032-26.425781-26.425782 0-14.597656 11.832031-26.429687 26.425781-26.429687 14.597656 0 26.425781 11.832031 26.425781 26.429687zm0 0" fill="#589ce0"/></symbol><symbol id="calendar-1" viewBox="0 0 512 512"><title>calendar-1</title><path d="M 512 256 C 512 397.386719 397.386719 512 256 512 C 114.613281 512 0 397.386719 0 256 C 0 114.613281 114.613281 0 256 0 C 397.386719 0 512 114.613281 512 256 Z M 512 256 " style=" stroke:none;fill-rule:nonzero;fill:rgb(70.980392%,88.627451%,21.568627%);fill-opacity:1;"/><path d="M 512 256 C 512 282.050781 508.109375 307.191406 500.871094 330.871094 C 468.859375 435.71875 371.328125 512 256 512 C 151.441406 512 61.511719 449.300781 21.769531 359.449219 C 7.769531 327.820312 0 292.820312 0 256 C 0 209.78125 12.25 166.429688 33.679688 129 C 77.800781 206.070312 160.839844 258 256 258 C 351.160156 258 434.210938 206.070312 478.320312 129 C 499.75 166.429688 512 209.78125 512 256 Z M 512 256 " style=" stroke:none;fill-rule:nonzero;fill:rgb(58.431373%,83.921569%,0%);fill-opacity:1;"/><path d="M 30.742188 377.703125 C 37.898438 390.921875 46.171875 403.441406 55.460938 415.128906 C 102.359375 474.148438 174.761719 512 256 512 C 337.238281 512 409.640625 474.148438 456.539062 415.128906 C 465.828125 403.441406 474.101562 390.921875 481.257812 377.703125 Z M 30.742188 377.703125 " style=" stroke:none;fill-rule:nonzero;fill:rgb(52.156863%,68.627451%,7.058824%);fill-opacity:1;"/><path d="M 435.390625 269.328125 L 435.390625 438.640625 C 426.421875 447.449219 416.800781 455.601562 406.609375 463.03125 C 404.648438 464.460938 402.671875 465.859375 400.660156 467.230469 C 359.5 495.46875 309.679688 512 256 512 C 202.320312 512 152.5 495.46875 111.339844 467.230469 C 109.328125 465.859375 107.351562 464.460938 105.390625 463.03125 C 95.199219 455.601562 85.578125 447.449219 76.609375 438.640625 L 76.609375 269.328125 C 76.609375 257.25 86.398438 247.460938 98.480469 247.460938 L 413.519531 247.460938 C 425.601562 247.460938 435.390625 257.25 435.390625 269.328125 Z M 435.390625 269.328125 " style=" stroke:none;fill-rule:nonzero;fill:rgb(100%,100%,100%);fill-opacity:1;"/><path d="M 435.390625 269.328125 L 435.390625 438.640625 C 426.421875 447.449219 416.800781 455.601562 406.609375 463.03125 C 404.648438 464.460938 402.671875 465.859375 400.660156 467.230469 C 359.5 495.46875 309.679688 512 256 512 L 256 247.460938 L 413.519531 247.460938 C 425.601562 247.460938 435.390625 257.25 435.390625 269.328125 Z M 435.390625 269.328125 " style=" stroke:none;fill-rule:nonzero;fill:rgb(81.568627%,96.470588%,100%);fill-opacity:1;"/><path d="M 435.386719 269.328125 L 435.386719 289.539062 L 76.613281 289.539062 L 76.613281 269.328125 C 76.613281 257.253906 86.402344 247.457031 98.476562 247.457031 L 413.523438 247.457031 C 425.597656 247.457031 435.386719 257.253906 435.386719 269.328125 Z M 435.386719 269.328125 " style=" stroke:none;fill-rule:nonzero;fill:rgb(100%,20.392157%,27.058824%);fill-opacity:1;"/><path d="M 435.386719 269.328125 L 435.386719 289.539062 L 256 289.539062 L 256 247.457031 L 413.523438 247.457031 C 425.597656 247.457031 435.386719 257.253906 435.386719 269.328125 Z M 435.386719 269.328125 " style=" stroke:none;fill-rule:nonzero;fill:rgb(86.666667%,7.058824%,39.607843%);fill-opacity:1;"/><path d="M 158.652344 321.144531 L 107.675781 321.144531 C 104.832031 321.144531 102.523438 318.835938 102.523438 315.992188 L 102.523438 308.488281 C 102.523438 305.644531 104.832031 303.335938 107.675781 303.335938 L 158.652344 303.335938 C 161.496094 303.335938 163.804688 305.644531 163.804688 308.488281 L 163.804688 315.992188 C 163.804688 318.835938 161.496094 321.144531 158.652344 321.144531 Z M 158.652344 321.144531 " style=" stroke:none;fill-rule:nonzero;fill:rgb(39.607843%,69.803922%,100%);fill-opacity:1;"/><path d="M 105.390625 388.113281 L 138.617188 388.113281 L 138.617188 421.339844 L 105.390625 421.339844 Z M 105.390625 388.113281 " style=" stroke:none;fill-rule:nonzero;fill:rgb(39.607843%,69.803922%,100%);fill-opacity:1;"/><path d="M 150.054688 388.113281 L 183.28125 388.113281 L 183.28125 421.339844 L 150.054688 421.339844 Z M 150.054688 388.113281 " style=" stroke:none;fill-rule:nonzero;fill:rgb(39.607843%,69.803922%,100%);fill-opacity:1;"/><path d="M 194.722656 388.113281 L 227.949219 388.113281 L 227.949219 421.339844 L 194.722656 421.339844 Z M 194.722656 388.113281 " style=" stroke:none;fill-rule:nonzero;fill:rgb(100%,20.392157%,27.058824%);fill-opacity:1;"/><path d="M 239.386719 388.113281 L 272.613281 388.113281 L 272.613281 421.339844 L 239.386719 421.339844 Z M 239.386719 388.113281 " style=" stroke:none;fill-rule:nonzero;fill:rgb(39.607843%,69.803922%,100%);fill-opacity:1;"/><path d="M 284.050781 388.113281 L 317.277344 388.113281 L 317.277344 421.339844 L 284.050781 421.339844 Z M 284.050781 388.113281 " style=" stroke:none;fill-rule:nonzero;fill:rgb(39.607843%,69.803922%,100%);fill-opacity:1;"/><path d="M 328.71875 388.113281 L 361.945312 388.113281 L 361.945312 421.339844 L 328.71875 421.339844 Z M 328.71875 388.113281 " style=" stroke:none;fill-rule:nonzero;fill:rgb(39.607843%,69.803922%,100%);fill-opacity:1;"/><path d="M 373.382812 388.113281 L 406.609375 388.113281 L 406.609375 421.339844 L 373.382812 421.339844 Z M 373.382812 388.113281 " style=" stroke:none;fill-rule:nonzero;fill:rgb(100%,20.392157%,27.058824%);fill-opacity:1;"/><path d="M 138.621094 434 L 138.621094 467.230469 L 111.339844 467.230469 C 109.328125 465.859375 107.351562 464.460938 105.390625 463.03125 L 105.390625 434 Z M 138.621094 434 " style=" stroke:none;fill-rule:nonzero;fill:rgb(39.607843%,69.803922%,100%);fill-opacity:1;"/><path d="M 150.054688 434 L 183.28125 434 L 183.28125 467.226562 L 150.054688 467.226562 Z M 150.054688 434 " style=" stroke:none;fill-rule:nonzero;fill:rgb(39.607843%,69.803922%,100%);fill-opacity:1;"/><path d="M 194.722656 434 L 227.949219 434 L 227.949219 467.226562 L 194.722656 467.226562 Z M 194.722656 434 " style=" stroke:none;fill-rule:nonzero;fill:rgb(39.607843%,69.803922%,100%);fill-opacity:1;"/><path d="M 239.386719 434 L 272.613281 434 L 272.613281 467.226562 L 239.386719 467.226562 Z M 239.386719 434 " style=" stroke:none;fill-rule:nonzero;fill:rgb(39.607843%,69.803922%,100%);fill-opacity:1;"/><path d="M 284.050781 434 L 317.277344 434 L 317.277344 467.226562 L 284.050781 467.226562 Z M 284.050781 434 " style=" stroke:none;fill-rule:nonzero;fill:rgb(100%,20.392157%,27.058824%);fill-opacity:1;"/><path d="M 328.71875 434 L 361.945312 434 L 361.945312 467.226562 L 328.71875 467.226562 Z M 328.71875 434 " style=" stroke:none;fill-rule:nonzero;fill:rgb(39.607843%,69.803922%,100%);fill-opacity:1;"/><path d="M 406.609375 434 L 406.609375 463.03125 C 404.648438 464.460938 402.671875 465.859375 400.660156 467.230469 L 373.378906 467.230469 L 373.378906 434 Z M 406.609375 434 " style=" stroke:none;fill-rule:nonzero;fill:rgb(100%,20.392157%,27.058824%);fill-opacity:1;"/><path d="M 105.390625 342.230469 L 138.617188 342.230469 L 138.617188 375.457031 L 105.390625 375.457031 Z M 105.390625 342.230469 " style=" stroke:none;fill-rule:nonzero;fill:rgb(39.607843%,69.803922%,100%);fill-opacity:1;"/><path d="M 150.054688 342.230469 L 183.28125 342.230469 L 183.28125 375.457031 L 150.054688 375.457031 Z M 150.054688 342.230469 " style=" stroke:none;fill-rule:nonzero;fill:rgb(39.607843%,69.803922%,100%);fill-opacity:1;"/><path d="M 194.722656 342.230469 L 227.949219 342.230469 L 227.949219 375.457031 L 194.722656 375.457031 Z M 194.722656 342.230469 " style=" stroke:none;fill-rule:nonzero;fill:rgb(39.607843%,69.803922%,100%);fill-opacity:1;"/><path d="M 239.386719 342.230469 L 272.613281 342.230469 L 272.613281 375.457031 L 239.386719 375.457031 Z M 239.386719 342.230469 " style=" stroke:none;fill-rule:nonzero;fill:rgb(39.607843%,69.803922%,100%);fill-opacity:1;"/><path d="M 284.050781 342.230469 L 317.277344 342.230469 L 317.277344 375.457031 L 284.050781 375.457031 Z M 284.050781 342.230469 " style=" stroke:none;fill-rule:nonzero;fill:rgb(39.607843%,69.803922%,100%);fill-opacity:1;"/><path d="M 328.71875 342.230469 L 361.945312 342.230469 L 361.945312 375.457031 L 328.71875 375.457031 Z M 328.71875 342.230469 " style=" stroke:none;fill-rule:nonzero;fill:rgb(39.607843%,69.803922%,100%);fill-opacity:1;"/><path d="M 373.382812 342.230469 L 406.609375 342.230469 L 406.609375 375.457031 L 373.382812 375.457031 Z M 373.382812 342.230469 " style=" stroke:none;fill-rule:nonzero;fill:rgb(100%,20.392157%,27.058824%);fill-opacity:1;"/><path d="M 123.765625 270.332031 C 117.925781 270.332031 113.191406 265.597656 113.191406 259.757812 L 113.191406 231.09375 C 113.191406 225.253906 117.925781 220.519531 123.765625 220.519531 C 129.605469 220.519531 134.339844 225.253906 134.339844 231.09375 L 134.339844 259.757812 C 134.339844 265.597656 129.605469 270.332031 123.765625 270.332031 Z M 123.765625 270.332031 " style=" stroke:none;fill-rule:nonzero;fill:rgb(27.843137%,30.980392%,43.529412%);fill-opacity:1;"/><path d="M 167.84375 270.332031 C 162.003906 270.332031 157.269531 265.597656 157.269531 259.757812 L 157.269531 231.09375 C 157.269531 225.253906 162.003906 220.519531 167.84375 220.519531 C 173.683594 220.519531 178.417969 225.253906 178.417969 231.09375 L 178.417969 259.757812 C 178.417969 265.597656 173.683594 270.332031 167.84375 270.332031 Z M 167.84375 270.332031 " style=" stroke:none;fill-rule:nonzero;fill:rgb(27.843137%,30.980392%,43.529412%);fill-opacity:1;"/><path d="M 211.921875 270.332031 C 206.082031 270.332031 201.347656 265.597656 201.347656 259.757812 L 201.347656 231.09375 C 201.347656 225.253906 206.082031 220.519531 211.921875 220.519531 C 217.761719 220.519531 222.496094 225.253906 222.496094 231.09375 L 222.496094 259.757812 C 222.496094 265.597656 217.761719 270.332031 211.921875 270.332031 Z M 211.921875 270.332031 " style=" stroke:none;fill-rule:nonzero;fill:rgb(27.843137%,30.980392%,43.529412%);fill-opacity:1;"/><path d="M 266.574219 231.089844 L 266.574219 259.761719 C 266.574219 265.597656 261.839844 270.328125 256 270.328125 C 250.160156 270.328125 245.425781 265.597656 245.425781 259.761719 L 245.425781 231.089844 C 245.425781 225.253906 250.160156 220.515625 256 220.515625 C 258.925781 220.515625 261.5625 221.703125 263.480469 223.609375 C 265.390625 225.527344 266.574219 228.175781 266.574219 231.089844 Z M 266.574219 231.089844 " style=" stroke:none;fill-rule:nonzero;fill:rgb(27.843137%,30.980392%,43.529412%);fill-opacity:1;"/><path d="M 266.574219 231.089844 L 266.574219 259.761719 C 266.574219 265.597656 261.839844 270.328125 256 270.328125 L 256 220.515625 C 258.925781 220.515625 261.5625 221.703125 263.480469 223.609375 C 265.390625 225.527344 266.574219 228.175781 266.574219 231.089844 Z M 266.574219 231.089844 " style=" stroke:none;fill-rule:nonzero;fill:rgb(19.607843%,23.137255%,35.294118%);fill-opacity:1;"/><path d="M 300.078125 270.332031 C 294.238281 270.332031 289.503906 265.597656 289.503906 259.757812 L 289.503906 231.09375 C 289.503906 225.253906 294.238281 220.519531 300.078125 220.519531 C 305.917969 220.519531 310.652344 225.253906 310.652344 231.09375 L 310.652344 259.757812 C 310.652344 265.597656 305.917969 270.332031 300.078125 270.332031 Z M 300.078125 270.332031 " style=" stroke:none;fill-rule:nonzero;fill:rgb(19.607843%,23.137255%,35.294118%);fill-opacity:1;"/><path d="M 344.15625 270.332031 C 338.316406 270.332031 333.582031 265.597656 333.582031 259.757812 L 333.582031 231.09375 C 333.582031 225.253906 338.316406 220.519531 344.15625 220.519531 C 349.996094 220.519531 354.730469 225.253906 354.730469 231.09375 L 354.730469 259.757812 C 354.730469 265.597656 349.996094 270.332031 344.15625 270.332031 Z M 344.15625 270.332031 " style=" stroke:none;fill-rule:nonzero;fill:rgb(19.607843%,23.137255%,35.294118%);fill-opacity:1;"/><path d="M 388.234375 270.332031 C 382.394531 270.332031 377.660156 265.597656 377.660156 259.757812 L 377.660156 231.09375 C 377.660156 225.253906 382.394531 220.519531 388.234375 220.519531 C 394.074219 220.519531 398.808594 225.253906 398.808594 231.09375 L 398.808594 259.757812 C 398.808594 265.597656 394.074219 270.332031 388.234375 270.332031 Z M 388.234375 270.332031 " style=" stroke:none;fill-rule:nonzero;fill:rgb(19.607843%,23.137255%,35.294118%);fill-opacity:1;"/><path d="M 328.71875 123.226562 C 328.71875 163.371094 296.179688 195.90625 256.050781 195.933594 L 256 195.933594 C 215.84375 195.933594 183.28125 163.382812 183.28125 123.226562 C 183.28125 83.058594 215.84375 50.507812 256 50.507812 L 256.0625 50.507812 C 296.191406 50.546875 328.71875 83.082031 328.71875 123.226562 Z M 328.71875 123.226562 " style=" stroke:none;fill-rule:nonzero;fill:rgb(45.490196%,49.411765%,61.960784%);fill-opacity:1;"/><path d="M 328.71875 123.226562 C 328.71875 163.371094 296.179688 195.90625 256.050781 195.933594 C 234.277344 179.164062 220.253906 152.835938 220.253906 123.226562 C 220.253906 93.601562 234.277344 67.265625 256.0625 50.507812 C 296.191406 50.546875 328.71875 83.082031 328.71875 123.226562 Z M 328.71875 123.226562 " style=" stroke:none;fill-rule:nonzero;fill:rgb(27.843137%,30.980392%,43.529412%);fill-opacity:1;"/><path d="M 328.71875 123.226562 C 328.71875 163.382812 296.15625 195.933594 256 195.933594 L 256 50.507812 C 296.15625 50.507812 328.71875 83.058594 328.71875 123.226562 Z M 328.71875 123.226562 " style=" stroke:none;fill-rule:nonzero;fill:rgb(19.607843%,23.137255%,35.294118%);fill-opacity:1;"/><path d="M 303.011719 123.226562 C 303.011719 149.183594 281.96875 170.234375 256 170.234375 C 245.75 170.234375 236.269531 166.964844 228.550781 161.394531 C 216.695312 152.847656 208.988281 138.933594 208.988281 123.226562 C 208.988281 107.492188 216.707031 93.566406 228.574219 85.03125 C 236.292969 79.476562 245.761719 76.203125 256 76.203125 C 281.96875 76.203125 303.011719 97.257812 303.011719 123.226562 Z M 303.011719 123.226562 " style=" stroke:none;fill-rule:nonzero;fill:rgb(100%,100%,100%);fill-opacity:1;"/><path d="M 303.011719 123.226562 C 303.011719 149.183594 281.96875 170.234375 256 170.234375 C 245.75 170.234375 236.269531 166.964844 228.550781 161.394531 C 223.214844 149.773438 220.253906 136.847656 220.253906 123.226562 C 220.253906 109.59375 223.226562 96.664062 228.574219 85.03125 C 236.292969 79.476562 245.765625 76.203125 256 76.203125 C 281.96875 76.203125 303.011719 97.257812 303.011719 123.226562 Z M 303.011719 123.226562 " style=" stroke:none;fill-rule:nonzero;fill:rgb(81.568627%,96.470588%,100%);fill-opacity:1;"/><path d="M 303.011719 123.226562 C 303.011719 149.183594 281.96875 170.234375 256 170.234375 L 256 76.203125 C 281.96875 76.203125 303.011719 97.257812 303.011719 123.226562 Z M 303.011719 123.226562 " style=" stroke:none;fill-rule:nonzero;fill:rgb(51.764706%,76.470588%,96.862745%);fill-opacity:1;"/><path d="M 281.46875 126.71875 L 252.5 126.71875 L 252.5 87.546875 L 259.5 87.546875 L 259.5 119.71875 L 281.46875 119.71875 Z M 281.46875 126.71875 " style=" stroke:none;fill-rule:nonzero;fill:rgb(19.607843%,23.137255%,35.294118%);fill-opacity:1;"/></symbol></svg>